<svg id="Layer_1" data-name="Layer 1" xmlns="http://www.w3.org/2000/svg" viewBox="0 0 469.7 494.93"><defs><style>.cls-1{fill:#ff1c48;}.cls-1,.cls-2{fill-rule:evenodd;}.cls-2{fill:#f1f4f8;}</style></defs><title>logo</title><path class="cls-1" d="M232.61,275c-23.82-13.75-23.82-36.23,0-50l124-71.52c23.82-13.75,62.78-13.71,86.57.07l123.26,71.38c23.79,13.78,23.79,36.34,0,50.12L443.17,346.44c-23.79,13.78-62.75,13.82-86.57.07Z" transform="translate(-164.7 -143.2)"/><path class="cls-1" d="M332,632.26c23.82,13.75,43.31,2.49,43.31-25v-143c0-27.5-19.49-61.24-43.31-75L208,317.74c-23.82-13.75-43.31-2.49-43.31,25v143c0,27.5,19.49,61.24,43.31,75Z" transform="translate(-164.7 -143.2)"/><path class="cls-2" d="M591.13,560.81c23.79-13.78,43.27-47.56,43.27-75.06v-143c0-27.5-19.48-38.72-43.27-24.94L467.87,389.19c-23.79,13.78-43.26,47.56-43.26,75.06v143c0,27.5,19.47,38.72,43.26,24.94Z" transform="translate(-164.7 -143.2)"/></svg>